<?xml version="1.0" encoding="UTF-8"?>
<svg id="_图层_1" data-name="图层_1" xmlns="http://www.w3.org/2000/svg" version="1.1" xmlns:xlink="http://www.w3.org/1999/xlink" viewBox="0 0 200 200">
  <!-- Generator: Adobe Illustrator 29.3.0, SVG Export Plug-In . SVG Version: 2.1.0 Build 146)  -->
  <defs>
    <style>
      .st0 {
        fill: #fff;
      }
    </style>
  </defs>
  <path class="st0" d="M172.2,25.3c2,0,3,0,3,3.1v25.3c0,2-1,3-3,3h-14.2c-3,0-4,1-4,4v87.8c0,2,1,3.1,3.1,3.1h25.3c3,0,4,1,4,4v24.2c0,3.1-1,4.1-4,4.1-16.2-1-33.3-1-50.5-1h-51.5c-3,0-4,0-2-3,4-8.1,8-17.2,13.1-25.3,1-2,2-3,5.1-3h25.3c2.4,0,2.9-.6,3-2.5V59.6c0-3-1-4-4-3h-14.2c-3.1,0-4-1-4-3v-24.3c0-3,1-4,4-4h65.6ZM30.9,149.5c7.1,3,15.1,2,23.2,2h20.2c2,0,3,1,2,3.1-5,9.1-9.1,18.2-14.1,27.3-1,2-2,2-4,2-5-1-11.1-1-19.2-1s-15.1,1-22.2-1c-3-1-4-2-2-4,5-9.1,9-17.2,13.1-26.3,1-1,1-3.1,3.1-2ZM80.3,16.2c3.1,0,3.1,1,2,3.1l-18.2,36.4c-1,1-1,2-2,4-1,2,0,3.1,2,4,2,1,2-1,3-2,1-2.1,2-3.1,5.1-3.1h24.2c3.1,0,3.1,1,2.1,3-8.1,15.1-15.1,31.3-23.2,46.5-3,6.1-2,8.1,5,8.1,2-1,6.1-1,10.1-1-4,7.1-7.1,14.2-10.1,21.2-2,5-5,6.1-9.1,6.1h-23.2c-2,0-4,0-6.1-1-7.1-2-9.1-7.1-7.1-14.1,4-11.1,10.1-21.2,15.1-32.3,1-2,2-3.1,3.1-6.1h-20.2c-8-2-11.1-7.1-8-15.1,3-9.1,8.1-18.2,12.1-26.3,5.1-9.1,9.1-19.2,14.2-28.3,1-2,2-3.1,5-3.1h24.2,0Z"/>
</svg>