<?xml version="1.0" encoding="UTF-8"?>
<svg id="_图层_1" data-name="图层_1" xmlns="http://www.w3.org/2000/svg" version="1.1" xmlns:xlink="http://www.w3.org/1999/xlink" viewBox="0 0 200 200">
  <!-- Generator: Adobe Illustrator 29.3.0, SVG Export Plug-In . SVG Version: 2.1.0 Build 146)  -->
  <defs>
    <style>
      .st0 {
        fill: #fff;
      }
    </style>
  </defs>
  <path class="st0" d="M195.1,87.3l-.3-.8-3.4.6v.3l-2.2.3v.3l-2,.3v.3h-.9v.3l-2.2.3v.3h-.9v.3h-1.1v.3h-1.1v.3h-1.1v.3h-1.1v.3h-1.4v.3h-1.7v.2h-1.7v.3c-1.2.4-2.9-.1-3.6.6h-.3l.3-.9h.3v-.6l.6-.3v-.6l.8-.6v-.6l.6-.3.3-.9h.3v-.5l.9-.6.3-1.1.6-.3v-.6l.6-.3v-.6l.6-.3.3-1.1.6-.3.3-1.1.6-.3v-.6h.3v-.6h.3v-.6h.3v-.6l.6-.3v-.6h.4v-.6h.3v-.4h.3v-.6h.3v-.6h.3v-.6h.3v-.7h.3v-.6h.3v-.6h.3v-.6h.3l.3-1.1h.1v-.6h.3v-.9h.3l.3-1.1h.3v-.9h.3l.3-1.1h.3v-.9h.3v-.6h.3l.3-1.7h.3v-.6h.3c1.2-4.1,2.4-8.1,3.6-12.1v-1.4h.3v-1.1h.3v-1.4h.3v-1.4h.3v-1.5h.3v-1.7h.4v-2h.3v-2h.3v-2.9c.6-3.7.8-7.5.6-11.3v-4.5h-.3v-.6h-.3l-.3-.9c-2.9.1-4.1,2.7-5.6,4.2-1.9,1.9-4,3.7-6.2,5.4l-1.1,1.4h-.6l-.9,1.1-.8.3-.3.6h-.6l-.9,1.1h-.6l-.3.6h-.6l-.6.9h-.6l-.3.6-.9.3v.3h-.6l-.3.6-.8.3v.3h-.6l-.3.6h-.7l-.3.6-1.1.3-.3.6-1.1.3-.3.6-1.7.6-.3.6h-.6v.3h-.6v.3h-.6v.3h-.6v.3h-.6v.3h-.6v.3h-.4v.3h-.6v.3h-.6v.3h-.6v.3h-.6v.3h-.6v.3h-.6v.3h-.9v.4l-1.1.3v.3h-.9v.3l-1.1.3v.3l-1.7.3v.3h-.6v.3l-1.7.3v.3h-.4c0,.1-1.7.4-1.7.4v.3h-.9v.3h-.9v.3l-2.9.6v.3h-1.1v.3h-1.1v.3h-1v.4h-1.1v.3h-1.1v.3h-1.4c-1.9.6-3.9,1.1-5.9,1.4.4-1,.8-2.1,1.1-2.9h.3l.2-2h.3v-.6h.3l.6-2.9h.3v-.8h.3v-1.1h.3v-1.1h.3v-1.4h.3v-1.4h.4v-2c1.2-6.6.7-13.4-1.4-19.7v-1.1h-.3v-.9h-.3v-.9h-.3v-.9h-.3v-1.1h-.4l-.3-1.7h-.3c-.3-.4-.5-.5-.8-.9h-.9l-.3.6h-.4l-.3.6h-.3v.9h-.3v.6h-.3v.9h-.3l-.3,1.1h-.3l-.3,1.1-.7.4-.6,1.7h-.3l-.3.9-.6.3v.6h-.3l-.3.8-.6.3v.6l-.6.3-.3.8-1.7,1.4v.6l-1.4,1.1c-.8.8-1.5,1.7-2.3,2.5h-.6l-1.1,1.4h-.6l-.6.8h-.6l-.6.9h-.6l-.3.6h-.6l-.3.6h-.6l-.3.6h-.6l-.3.6-1.1.3-.3.6h-.5v.3h-.6v.3h-.6v.3h-.6v.3h-.6v.3h-.6v.3h-.6v.3h-.6v.3l-1.7.6v.3h-.7v.3l-1.1.3v.3l-1.7.3v.3h-.6v.3l-9.9,2.9h-1.4v.3h-1.4v.3h-1.4v.2h-1.4v.3l-3.5.3-13.8,3.4c-6.7,2.2-13.1,5-19.2,8.4h-.6v.3h-.6v.3h-.6v.3h-.6l-.3.6h-.6v.3h-.4l-.3.6-1.1.3-.3.6h-.6l-.3.6h-.6c-.1.2-.2.4-.3.6h-.6v.3l-.9.3-.3.6h-.6l-.6.9h-.6l-.6.9h-.6l-.6.8h-.6l-1.1,1.4h-.4l-1.4,1.7h-.6l-3.4,3.7-2,1.7v.7l-1.7,1.4-.3.9-.9.6v.6l-.9.6v.6l-.9.6v.6l-.6.3-.3.9h-.3v.6l-.6.3-.3.8h-.3l-.3,1.1-.6.3-.6,1.7-.6.3v.6h-.3v.6h-.3v.6h-.3v.6h-.3v.6h-.5v.6h-.3l-.6,1.7h-.3v.8h-.3l-.3,1.1h-.3v.9h-.3v.6h-.3l-.3,1.7h-.1v.6h-.3l-.6,2.9h-.3v.9h-.3v.9h-.3v1.1h-.3v1.1h-.3v1.4h-.3v1.1h-.4v1.7h-.3v1.7h-.3v2.3h-.3v2.9c-.4,3-.5,6-.3,9h.3v3.4h.3v2.3h.3v2h.3v1.8c1.1,3.7,1.8,7.6,3.1,11l.3,1.7h.3v.6h.3l.3,1.7h.3l.3,1.1h.3v.9h.3l.3,1.1h.2v.6h.3v.8h.3l.6,1.7h.3l.3,1.1.6.3.6,1.7.6.3.3,1.1.6.3.3,1.1.6.3v.6l.6.3v.6l.6.3v.4l.6.3v.6l.8.6v.6l.9.6v.6l.9.6v.6l1.4,1.1v.6l2,1.7v.6l1.7,1.4,2.5,2.9h.8c.6.6,1.1,1.3,1.7,2h.6l1.1,1.4h.6l.9,1.1h.6l.5.7h.6l.3.6h.6l.6.8h.6l.3.6.9.3v.3l1.1.3.3.6h.6l.3.6,1.1.3.3.6,4.5,2v.3h.6v.3h.6v.3l1.7.6v.3h.8v.4l1.1.3v.3l1.7.3v.3h.6v.3l1.7.3v.3h.8v.3h.9v.3h.9v.4h.8l2.3.3v.3h1.1v.3h1.1v.3h1.4v.3h1.4v.3h1.4v.3h2v.3h2.3v.3h3.4v.4h9.3v-.3l5.6-.3v-.3h2v-.3h1.7v-.3h1.4v-.3l2.5-.3v-.3h1.1v-.3l2-.3h0c0-.1.9-.1.9-.1v-.3h.9v-.3h.9v-.3h.8v-.3h.9v-.3h.6v-.3l1.7-.3v-.3l1.1-.3v-.4h.9v-.3l1.1-.3v-.3h.9v-.3l1.7-.6v-.3h.6v-.3h.7v-.3l1.7-.6.3-.6,1.7-.6.3-.6,1.1-.3v-.3l.8-.3.3-.6,1.1-.3.6-.9.9-.3v-.3h.6l.3-.6h.6l.3-.6.9-.3.9-1.1h.6l.9-1.1h.6l1.4-1.7h.6l2.9-3.4,2.5-2.3v-.6l1.7-1.4v-.6l1.4-1.1v-.6l.9-.6v-.6l.9-.6v-.6l.6-.3v-.6l.9-.6v-.6l.6-.3v-.6l.6-.3v-.6h.3v-.6l.6-.3.3-1.1.6-.3c0-.4.2-.7.3-1.1l.6-.3v-.6h.3v-.6h.3v-.6h.4v-.6h.3v-.6h.3v-.6h.3v-.6h.3l.6-1.7h.3v-.9h.3c0-.4.2-.7.3-1.1h.3l3.1-9v-1.1h.3v-1.1h.3c.3-.9,0-1.6.6-2.2,1-1.6,2.6-1.4,4.2-2.3v-.3l1.7-.6v-.3h.9v-.3l1.1-.3v-.3l1.1-.3.3-.6h.6v-.3h.6v-.3h.6v-.3h.6l.3-.6,1.1-.3.3-.6,1.1-.3.3-.6h.6l.3-.6h.6l.6-.9h.6l.3-.6h.6l.3-.6.8-.3.9-1.1h.6l1.1-1.4h.6c.8-.9,1.7-1.9,2.5-2.8l3.5-3.4v-.6l1.4-1.1v-.6l.6-.3v-.3l.6-.3v-.6l.9-.6v-.6l.6-.3.3-.9h.3v-.6l.6-.3v-.6l.6-.3v-.6l.6-.3v-.4h.3v-.6l.6-.3.3-1.1h.3v-.7l.6-.3v-.6h.3v-.6h.4v-.6h.3v-.6h.3v-.7h.3v-.6h.3l.6-1.7h.3l.3-1.4h.3v-.6h.3v-.9h.1v-.6h.3v-.9h.3v-.8h.3c.4-.8.4-1.7,0-2.4h0ZM33.3,134.7l-1.1.3v.4h-.6v.3h-1.1c-1.8.4-3.6.4-5.4,0v-.3h-.6v-.3l-1.7-.6c-1.1-.9-2.1-1.8-2.9-2.9l-1.1-.9v-.6l-.6-.3-.3-.8h-.3v-.6l-.6-.3v-.6l-.6-.3-.6-1.7h-.3l-.3-1.1h-.3l-.3-1.4h-.1v-.9h-.3v-.6h-.3v-.9h-.3v-.9h-.3v-1.1h-.3v-.3h.3v-.6c.7,0,1.4.3,2,.9l.3.6.9.3.6.8h.4l.6.9h.6l.3.6h.6l.6.9h.6l.3.6,1.1.3.3.6,1.1.3.3.6,2.5.8v.3h.6v.3h.8v.3h.6v.3h1.1v.3h.9v.3h.8v.3l2.3.3c1,.4,2,.7,3.1.9.2.3,0,0,.3.3-.5,2.2-1.8,4-3.6,5.3h0ZM111,114.9h-.3l-.3,1.4h-.3v.6h-.3v.6h-.3l-.3,1.1h-.5v.6h-.3v.6h-.3v.6h-.3v.6h-.3v.6l-.6.3-.3,1.1h-.3l-.3.9-.6.3v.6h-.3l-.3.9-.6.3v.6l-.6.3-.3.9-1.1.9c-3.6,4.8-8.6,8.5-14.4,10.4l-2.6.3c-4.9,1.1-10,.9-14.8-.6v-.3l-1.1-.3v-.3l-1.4-.3-.3-.6-1.1-.3-.3-.6h-.6l-.3-.4h-.6l-.6-1c-1.8-1.1-3.3-2.6-4.2-4.5l.9-.3h0c0-.1,1.4-.1,1.4-.1v-.3h2v-.3h2v-.3l3.1-.3v-.3h1.4v-.3h1.1v-.3h1.2v-.3h1.4c3.3-1.1,7-2.1,10.2-3.4l2.5-.6v-.3h.6v-.3h.9v-.3l1.4-.3v-.3h.6v-.3h.8v-.3h.6v-.3h.8v-.4l1.1-.3v-.3h.9v-.3l1.1-.3v-.3h.7v-.3l1.1-.3v-.3h.6v-.3h.8v-.4l1.7-.6v-.3h.6v-.3h.9v-.3l1.7-.6v-.3h.6v-.3h.9v-.3h.6c0-.1,1.7-.7,1.7-.7v-.3h.7v-.3h.6v-.3h1.1v-.3l.6.3v1.7Z"/>
</svg>